# xmcd
#
# Track frame offsets:
#	150
#	17031
#	33832
#	53946
#	71326
#	88880
#	105547
#	120447
#	135908
#	152906
#	173338
#	189756
#
# Disc length: 2745 seconds
#
# Revision: 1
# Processed by: cddbd v1.4PL0 Copyright (c) Steve Scherf et al.
# Submitted via: audiograbber 1.81.03
#
DISCID=880ab70c
DTITLE=187 - Turbulencija
DYEAR=2003
DGENRE=Rap
TTITLE0=Sex
TTITLE1=Tvoja Devojka
TTITLE2=U Jednom Dahu
TTITLE3=Pored Nje
TTITLE4=Fiesta
TTITLE5=Turbulencija
TTITLE6=Test
TTITLE7=Tele-Fan
TTITLE8=Tamo Uvek Si Ti
TTITLE9=Kazes Mi Da Ides
TTITLE10=Da Li Mrzis Me
TTITLE11=Lavovi
EXTD=
EXTT0=
EXTT1=
EXTT2=
EXTT3=
EXTT4=
EXTT5=
EXTT6=
EXTT7=
EXTT8=
EXTT9=
EXTT10=
EXTT11=
PLAYORDER=
